#Comment line ignore any data following # character 
#Hierarchical Translation and Rotation (.htr) file 
[Header]	
#Header keywords are followed by a single value 
FileType HTR		#Single word string
DataType HTRS		#Translation followed by rotation and scale data
FileVersion 1		#integer
NumSegments 84		#integer
NumFrames 2		#integer
DataFrameRate 30		#integer, data frame rate in this file
EulerRotationOrder ZYX
CalibrationUnits mm
RotationUnits Degrees
GlobalAxisofGravity Y
BoneLengthAxis Y
ScaleFactor 1.00
[SegmentNames&Hierarchy]
#CHILD	PARENT
MASTER GLOBAL
root MASTER
chest root
L_mid_tent01 root
R_mid_tent01 root
spine01 root
Bip01_Neck chest
L_humerus chest
R_humerus chest
weapon_bone chest
Bip01_Head Bip01_Neck
eye_left_bone Bip01_Head
eye_right_bone Bip01_Head
L_forearm L_humerus
L_front_hand L_forearm
L_weapon_bone L_forearm
L_front_hand01_01 L_front_hand
L_front_hand02_01 L_front_hand
L_front_hand03_01 L_front_hand
L_front_hand01_02 L_front_hand01_01
L_front_hand02_02 L_front_hand02_01
L_front_hand03_02 L_front_hand03_01
R_forearm R_humerus
R_front_hand R_forearm
R_weapon_bone R_forearm
R_front_hand01_01 R_front_hand
R_front_hand02_01 R_front_hand
R_front_hand03_01 R_front_hand
R_front_hand01_02 R_front_hand01_01
R_front_hand02_02 R_front_hand02_01
R_front_hand03_02 R_front_hand03_01
null_rope01_connect L_mid_tent01
Rope1_Seg01 null_rope01_connect
Rope1_Seg02 Rope1_Seg01
Rope1_Seg03 Rope1_Seg02
Rope1_Seg04 Rope1_Seg03
Rope1_Seg05 Rope1_Seg04
Rope1_Seg06 Rope1_Seg05
Rope1_Seg07 Rope1_Seg06
Rope1_Seg09 Rope1_Seg07
L_mid_hand01 Rope1_Seg09
L_mid_hand02 Rope1_Seg09
L_mid_hand03 Rope1_Seg09
null_rope02_connect R_mid_tent01
Rope2_Seg01 null_rope02_connect
Rope2_Seg02 Rope2_Seg01
Rope2_Seg03 Rope2_Seg02
Rope2_Seg04 Rope2_Seg03
Rope2_Seg05 Rope2_Seg04
Rope2_Seg06 Rope2_Seg05
Rope2_Seg07 Rope2_Seg06
Rope2_Seg09 Rope2_Seg07
R_mid_hand01 Rope2_Seg09
R_mid_hand02 Rope2_Seg09
R_mid_hand03 Rope2_Seg09
spine02 spine01
spine03 spine02
pelvis spine03
null_rope03_connect pelvis
null_rope04_connect pelvis
Rope3_Seg01 null_rope03_connect
Rope3_Seg02 Rope3_Seg01
Rope3_Seg03 Rope3_Seg02
Rope3_Seg04 Rope3_Seg03
Rope3_Seg05 Rope3_Seg04
Rope3_Seg06 Rope3_Seg05
Rope3_Seg07 Rope3_Seg06
Rope3_Seg08 Rope3_Seg07
Rope3_Seg09 Rope3_Seg08
R_rear_hand01 Rope3_Seg09
R_rear_hand02 Rope3_Seg09
R_rear_hand03 Rope3_Seg09
Rope4_Seg01 null_rope04_connect
Rope4_Seg02 Rope4_Seg01
Rope4_Seg03 Rope4_Seg02
Rope4_Seg04 Rope4_Seg03
Rope4_Seg05 Rope4_Seg04
Rope4_Seg06 Rope4_Seg05
Rope4_Seg07 Rope4_Seg06
Rope4_Seg08 Rope4_Seg07
Rope4_Seg09 Rope4_Seg08
L_rear_hand01 Rope4_Seg09
L_rear_hand02 Rope4_Seg09
L_rear_hand03 Rope4_Seg09
[BasePosition]
#SegmentName Tx, Ty, Tz, Rx, Ry, Rz, BoneLength
MASTER 0.000000 0.000000 0.000000 -90.000000 0.000000 0.000000 10.000000 
root 0.000000 0.000000 0.000000 0.000000 0.000000 0.000000 10.000000 
chest 0.000000 0.000000 0.000000 0.000000 0.000000 0.000000 10.000000 
L_mid_tent01 0.000000 0.000000 0.000000 0.000000 0.000000 0.000000 10.000000 
R_mid_tent01 0.000000 0.000000 0.000000 0.000000 0.000000 0.000000 10.000000 
spine01 0.000000 0.000000 0.000000 0.000000 0.000000 0.000000 10.000000 
Bip01_Neck 0.000000 0.000000 0.000000 0.000000 0.000000 0.000000 10.000000 
L_humerus 0.000000 0.000000 0.000000 0.000000 0.000000 0.000000 10.000000 
R_humerus 0.000000 0.000000 0.000000 0.000000 0.000000 0.000000 10.000000 
weapon_bone 0.000000 0.000000 0.000000 0.000000 0.000000 0.000000 10.000000 
Bip01_Head 0.000000 0.000000 0.000000 0.000000 0.000000 0.000000 10.000000 
eye_left_bone 0.000000 0.000000 0.000000 0.000000 0.000000 0.000000 10.000000 
eye_right_bone 0.000000 0.000000 0.000000 0.000000 0.000000 0.000000 10.000000 
L_forearm 0.000000 0.000000 0.000000 0.000000 0.000000 0.000000 10.000000 
L_front_hand 0.000000 0.000000 0.000000 0.000000 0.000000 0.000000 10.000000 
L_weapon_bone 0.000000 0.000000 0.000000 0.000000 0.000000 0.000000 10.000000 
L_front_hand01_01 0.000000 0.000000 0.000000 0.000000 0.000000 0.000000 10.000000 
L_front_hand02_01 0.000000 0.000000 0.000000 0.000000 0.000000 0.000000 10.000000 
L_front_hand03_01 0.000000 0.000000 0.000000 0.000000 0.000000 0.000000 10.000000 
L_front_hand01_02 0.000000 0.000000 0.000000 0.000000 0.000000 0.000000 10.000000 
L_front_hand02_02 0.000000 0.000000 0.000000 0.000000 0.000000 0.000000 10.000000 
L_front_hand03_02 0.000000 0.000000 0.000000 0.000000 0.000000 0.000000 10.000000 
R_forearm 0.000000 0.000000 0.000000 0.000000 0.000000 0.000000 10.000000 
R_front_hand 0.000000 0.000000 0.000000 0.000000 0.000000 0.000000 10.000000 
R_weapon_bone 0.000000 0.000000 0.000000 0.000000 0.000000 0.000000 10.000000 
R_front_hand01_01 0.000000 0.000000 0.000000 0.000000 0.000000 0.000000 10.000000 
R_front_hand02_01 0.000000 0.000000 0.000000 0.000000 0.000000 0.000000 10.000000 
R_front_hand03_01 0.000000 0.000000 0.000000 0.000000 0.000000 0.000000 10.000000 
R_front_hand01_02 0.000000 0.000000 0.000000 0.000000 0.000000 0.000000 10.000000 
R_front_hand02_02 0.000000 0.000000 0.000000 0.000000 0.000000 0.000000 10.000000 
R_front_hand03_02 0.000000 0.000000 0.000000 0.000000 0.000000 0.000000 10.000000 
null_rope01_connect 0.000000 0.000000 0.000000 0.000000 0.000000 0.000000 10.000000 
Rope1_Seg01 0.000000 0.000000 0.000000 0.000000 0.000000 0.000000 10.000000 
Rope1_Seg02 0.000000 0.000000 0.000000 0.000000 0.000000 0.000000 10.000000 
Rope1_Seg03 0.000000 0.000000 0.000000 0.000000 0.000000 0.000000 10.000000 
Rope1_Seg04 0.000000 0.000000 0.000000 0.000000 0.000000 0.000000 10.000000 
Rope1_Seg05 0.000000 0.000000 0.000000 0.000000 0.000000 0.000000 10.000000 
Rope1_Seg06 0.000000 0.000000 0.000000 0.000000 0.000000 0.000000 10.000000 
Rope1_Seg07 0.000000 0.000000 0.000000 0.000000 0.000000 0.000000 10.000000 
Rope1_Seg09 0.000000 0.000000 0.000000 0.000000 0.000000 0.000000 10.000000 
L_mid_hand01 0.000000 0.000000 0.000000 0.000000 0.000000 0.000000 10.000000 
L_mid_hand02 0.000000 0.000000 0.000000 0.000000 0.000000 0.000000 10.000000 
L_mid_hand03 0.000000 0.000000 0.000000 0.000000 0.000000 0.000000 10.000000 
null_rope02_connect 0.000000 0.000000 0.000000 0.000000 0.000000 0.000000 10.000000 
Rope2_Seg01 0.000000 0.000000 0.000000 0.000000 0.000000 0.000000 10.000000 
Rope2_Seg02 0.000000 0.000000 0.000000 0.000000 0.000000 0.000000 10.000000 
Rope2_Seg03 0.000000 0.000000 0.000000 0.000000 0.000000 0.000000 10.000000 
Rope2_Seg04 0.000000 0.000000 0.000000 0.000000 0.000000 0.000000 10.000000 
Rope2_Seg05 0.000000 0.000000 0.000000 0.000000 0.000000 0.000000 10.000000 
Rope2_Seg06 0.000000 0.000000 0.000000 0.000000 0.000000 0.000000 10.000000 
Rope2_Seg07 0.000000 0.000000 0.000000 0.000000 0.000000 0.000000 10.000000 
Rope2_Seg09 0.000000 0.000000 0.000000 0.000000 0.000000 0.000000 10.000000 
R_mid_hand01 0.000000 0.000000 0.000000 0.000000 0.000000 0.000000 10.000000 
R_mid_hand02 0.000000 0.000000 0.000000 0.000000 0.000000 0.000000 10.000000 
R_mid_hand03 0.000000 0.000000 0.000000 0.000000 0.000000 0.000000 10.000000 
spine02 0.000000 0.000000 0.000000 0.000000 0.000000 0.000000 10.000000 
spine03 0.000000 0.000000 0.000000 0.000000 0.000000 0.000000 10.000000 
pelvis 0.000000 0.000000 0.000000 0.000000 0.000000 0.000000 10.000000 
null_rope03_connect 0.000000 0.000000 0.000000 0.000000 0.000000 0.000000 10.000000 
null_rope04_connect 0.000000 0.000000 0.000000 0.000000 0.000000 0.000000 10.000000 
Rope3_Seg01 0.000000 0.000000 0.000000 0.000000 0.000000 0.000000 10.000000 
Rope3_Seg02 0.000000 0.000000 0.000000 0.000000 0.000000 0.000000 10.000000 
Rope3_Seg03 0.000000 0.000000 0.000000 0.000000 0.000000 0.000000 10.000000 
Rope3_Seg04 0.000000 0.000000 0.000000 0.000000 0.000000 0.000000 10.000000 
Rope3_Seg05 0.000000 0.000000 0.000000 0.000000 0.000000 0.000000 10.000000 
Rope3_Seg06 0.000000 0.000000 0.000000 0.000000 0.000000 0.000000 10.000000 
Rope3_Seg07 0.000000 0.000000 0.000000 0.000000 0.000000 0.000000 10.000000 
Rope3_Seg08 0.000000 0.000000 0.000000 0.000000 0.000000 0.000000 10.000000 
Rope3_Seg09 0.000000 0.000000 0.000000 0.000000 0.000000 0.000000 10.000000 
R_rear_hand01 0.000000 0.000000 0.000000 0.000000 0.000000 0.000000 10.000000 
R_rear_hand02 0.000000 0.000000 0.000000 0.000000 0.000000 0.000000 10.000000 
R_rear_hand03 0.000000 0.000000 0.000000 0.000000 0.000000 0.000000 10.000000 
Rope4_Seg01 0.000000 0.000000 0.000000 0.000000 0.000000 0.000000 10.000000 
Rope4_Seg02 0.000000 0.000000 0.000000 0.000000 0.000000 0.000000 10.000000 
Rope4_Seg03 0.000000 0.000000 0.000000 0.000000 0.000000 0.000000 10.000000 
Rope4_Seg04 0.000000 0.000000 0.000000 0.000000 0.000000 0.000000 10.000000 
Rope4_Seg05 0.000000 0.000000 0.000000 0.000000 0.000000 0.000000 10.000000 
Rope4_Seg06 0.000000 0.000000 0.000000 0.000000 0.000000 0.000000 10.000000 
Rope4_Seg07 0.000000 0.000000 0.000000 0.000000 0.000000 0.000000 10.000000 
Rope4_Seg08 0.000000 0.000000 0.000000 0.000000 0.000000 0.000000 10.000000 
Rope4_Seg09 0.000000 0.000000 0.000000 0.000000 0.000000 0.000000 10.000000 
L_rear_hand01 0.000000 0.000000 0.000000 0.000000 0.000000 0.000000 10.000000 
L_rear_hand02 0.000000 0.000000 0.000000 0.000000 0.000000 0.000000 10.000000 
L_rear_hand03 0.000000 0.000000 0.000000 0.000000 0.000000 0.000000 10.000000 
#Beginning of Data. Separated by tabs
#Fr	Tx	Ty	Tz	Rx	Ry	Rz	SF
[MASTER]
13 -0.000337 2250.313232 3496.609863 0.001660 0.001660 0.001660 4158.147461
14 -0.000369 2464.939209 3678.523682 0.001660 0.001660 0.001660 4428.031250
[root]
13 -37.522301 -50.643307 1501.707397 -85.376228 -6.429916 -92.958740 1503.029663
14 -37.882366 -51.398773 1502.621826 -86.963501 -8.386911 -92.860916 1503.977783
[chest]
13 -84.512650 -34.090519 0.000000 -1.316194 -0.357988 -158.227951 91.129311
14 -84.512650 -34.090519 0.000000 -1.358797 -0.150387 -160.567902 91.129311
[L_mid_tent01]
13 27.299126 22.179335 -249.918701 2.136157 24.051792 79.592773 252.381699
14 27.299131 22.179354 -249.918701 2.319188 25.576263 79.779541 252.381714
[R_mid_tent01]
13 23.228794 24.509907 226.238495 160.922028 -39.725571 85.367485 228.744751
14 23.228794 24.509907 226.238495 161.299118 -39.988049 84.827385 228.744751
[spine01]
13 -0.361383 -0.195265 0.000000 0.001953 0.001302 22.616468 0.410763
14 -0.361383 -0.195265 0.000000 0.001952 0.001303 22.566032 0.410763
[Bip01_Neck]
13 165.484543 71.581718 0.000119 176.643677 -1.657967 43.431911 180.302734
14 165.484543 71.581718 0.000119 176.643677 -1.657967 43.431911 180.302734
[L_humerus]
13 -13.983130 -135.272980 -120.471481 -6.817355 64.725136 83.062622 181.680161
14 -13.983130 -135.272980 -120.471481 -6.709991 65.096939 83.183624 181.680161
[R_humerus]
13 -13.983309 -135.273102 125.287651 25.960821 -65.556053 69.754601 184.909012
14 -13.983309 -135.273102 125.287651 26.104778 -65.943611 69.598587 184.909012
[weapon_bone]
13 235.964890 -300.705902 0.000000 0.000000 -89.951546 -128.212341 382.234833
14 235.964890 -300.705902 0.000000 0.000000 -89.951546 -128.212341 382.234833
[Bip01_Head]
13 213.583969 185.326996 16.795010 4.438828 -1.308844 -43.901844 283.277740
14 213.528442 185.481964 14.793910 4.441945 -1.131530 -43.899635 283.225739
[eye_left_bone]
13 -24.626970 125.451866 -64.772606 0.000000 -90.000000 -99.840431 143.318359
14 -24.626970 125.451866 -64.772606 0.000000 -90.000000 -99.840431 143.318359
[eye_right_bone]
13 -24.626970 125.451866 64.327362 0.000000 -89.965736 80.156380 143.117676
14 -24.626970 125.451866 64.327362 0.000000 -89.965736 80.156380 143.117676
[L_forearm]
13 322.776093 0.000000 -0.000119 0.000424 -0.002309 -110.816628 322.776093
14 322.776093 0.000000 -0.000119 0.000422 -0.002309 -110.699478 322.776093
[L_front_hand]
13 241.149185 -0.042021 -3.300071 -178.667953 -1.835447 -27.422342 241.171753
14 241.149185 -0.042021 -3.300071 -178.667953 -1.835447 -27.422350 241.171753
[L_weapon_bone]
13 156.183838 0.000000 0.000000 0.000014 0.000007 0.000001 156.183838
14 156.183838 0.000000 0.000000 0.000014 0.000007 0.000001 156.183838
[L_front_hand01_01]
13 86.095154 20.947098 -0.655860 -0.273295 -0.533469 64.985298 88.609184
14 86.095154 20.947098 -0.655860 -0.273650 -0.533287 65.061523 88.609184
[L_front_hand02_01]
13 86.935165 -11.437475 24.513514 140.772385 -54.262844 -45.183468 91.046425
14 86.935165 -11.437475 24.513514 140.858566 -54.305298 -45.287003 91.046425
[L_front_hand03_01]
13 86.637497 -14.123976 -20.424902 -141.183044 52.494118 -47.265888 90.126129
14 86.637497 -14.123976 -20.424902 -141.258987 52.537949 -47.363300 90.126129
[L_front_hand01_02]
13 71.020905 -0.000179 0.000030 0.000315 -0.002326 -105.414528 71.020905
14 71.020905 -0.000179 0.000030 0.000315 -0.002326 -105.409866 71.020905
[L_front_hand02_02]
13 71.020927 -0.000119 0.000060 0.000315 -0.002326 -105.414528 71.020927
14 71.020927 -0.000119 0.000060 0.000315 -0.002326 -105.409866 71.020927
[L_front_hand03_02]
13 71.020905 -0.000060 0.000060 0.000315 -0.002326 -105.414528 71.020905
14 71.020905 -0.000060 0.000060 0.000315 -0.002326 -105.409866 71.020905
[R_forearm]
13 322.776428 -0.000060 0.000030 0.201278 0.067663 -109.486351 322.776428
14 322.776428 -0.000060 0.000030 0.201358 0.067424 -109.349960 322.776428
[R_front_hand]
13 238.847015 -0.006795 2.210259 -2.635298 -10.645461 -26.312506 238.857239
14 238.847015 -0.006795 2.210259 -2.635298 -10.645461 -26.312506 238.857239
[R_weapon_bone]
13 155.664093 0.002503 -0.000030 0.003487 0.001180 -90.988930 155.664078
14 155.664093 0.002503 -0.000030 0.003487 0.001180 -90.988930 155.664078
[R_front_hand01_01]
13 87.624611 14.231146 22.918642 -139.406311 -53.422394 43.599289 91.683487
14 87.624611 14.231146 22.918642 -138.707092 -52.961746 42.720669 91.683487
[R_front_hand02_01]
13 89.356956 14.367283 -19.491137 140.210251 51.852013 46.267590 92.579636
14 89.356956 14.367283 -19.491137 139.537384 51.404167 45.405891 92.579636
[R_front_hand03_01]
13 87.286232 -22.307278 -0.143439 0.071981 -0.448622 -63.915920 90.091743
14 87.286232 -22.307278 -0.143439 0.065057 -0.451640 -63.223511 90.091743
[R_front_hand01_02]
13 71.020905 0.000060 0.000119 0.002323 -0.000334 106.381714 71.020905
14 71.020905 0.000060 0.000119 0.002323 -0.000334 106.381714 71.020905
[R_front_hand02_02]
13 71.020844 -0.000030 -0.000119 0.002323 -0.000334 106.381714 71.020836
14 71.020844 -0.000030 -0.000119 0.002323 -0.000334 106.381714 71.020836
[R_front_hand03_02]
13 71.020905 0.000000 0.000030 0.002323 -0.000334 106.381714 71.020905
14 71.020905 0.000000 0.000030 0.002323 -0.000334 106.381714 71.020905
[null_rope01_connect]
13 328.732483 0.000000 -0.000238 -147.550140 -68.833229 164.112854 328.732483
14 328.732483 0.000000 -0.000238 -148.327515 -65.854240 166.757675 328.732483
[Rope1_Seg01]
13 0.000057 -0.000019 0.000076 115.055237 10.620910 -170.253265 0.000097
14 0.000056 -0.000017 0.000070 109.233574 1.811164 -171.728683 0.000091
[Rope1_Seg02]
13 139.999863 -0.000179 0.000000 6.844949 -11.729023 -1.045874 139.999863
14 139.999863 -0.000179 0.000000 5.795879 -10.307200 -2.102673 139.999863
[Rope1_Seg03]
13 139.999924 0.000060 -0.000060 6.534180 -19.719324 0.473777 139.999924
14 139.999924 0.000060 -0.000060 6.636097 -18.296980 -1.946261 139.999924
[Rope1_Seg04]
13 139.999924 -0.000060 -0.000119 3.053648 -22.915735 0.255940 139.999924
14 139.999924 -0.000060 -0.000119 4.729887 -25.153307 -3.894363 139.999924
[Rope1_Seg05]
13 139.999832 0.000119 -0.000060 -2.360280 -19.864916 6.388898 139.999832
14 139.999832 0.000119 -0.000060 -1.971770 -21.444632 3.320475 139.999832
[Rope1_Seg06]
13 139.999954 0.000119 -0.000060 -16.167627 -32.254402 19.365532 139.999954
14 139.999954 0.000119 -0.000060 -13.355082 -30.400171 16.384695 139.999954
[Rope1_Seg07]
13 139.999985 0.000060 0.000000 -28.799271 -22.720812 6.880365 139.999985
14 139.999985 0.000060 0.000000 -24.101479 -23.037968 7.124086 139.999985
[Rope1_Seg09]
13 121.602913 0.000119 -0.000089 -89.793175 -1.359789 0.847147 121.602913
14 121.602913 0.000119 -0.000089 -89.793175 -1.359789 0.847147 121.602913
[L_mid_hand01]
13 103.859421 1.038730 8.195221 112.987694 -50.601231 -18.681452 104.187431
14 103.859421 1.038730 8.195221 115.405022 -54.702587 -21.718943 104.187431
[L_mid_hand02]
13 105.572853 -4.139662 -10.864139 -153.018723 36.866016 -49.082405 106.211075
14 105.572853 -4.139662 -10.864139 -156.173538 38.796780 -54.226360 106.211075
[L_mid_hand03]
13 104.641464 17.579376 -3.913581 -11.755014 14.733717 54.618217 106.179977
14 104.641464 17.579376 -3.913581 -10.557026 15.605444 59.191402 106.179977
[null_rope02_connect]
13 328.732849 0.000179 -0.000119 -145.209000 44.434376 14.736000 328.732849
14 328.732849 0.000179 -0.000119 -142.511047 45.742523 15.475187 328.732849
[Rope2_Seg01]
13 0.000057 0.000076 0.000000 -44.056339 6.545580 -3.642648 0.000095
14 0.000059 0.000070 0.000000 -41.652802 4.022672 -2.804880 0.000091
[Rope2_Seg02]
13 139.999741 -0.000060 -0.000119 -5.563102 1.689571 4.446932 139.999756
14 139.999741 -0.000060 -0.000119 -3.901797 1.247809 3.300100 139.999756
[Rope2_Seg03]
13 140.000107 0.000030 0.000000 -9.773355 2.355801 8.711056 140.000107
14 140.000107 0.000030 0.000000 -6.860760 1.873121 6.215455 140.000107
[Rope2_Seg04]
13 139.999802 0.000000 -0.000060 -19.161007 2.493806 24.633041 139.999802
14 139.999802 0.000000 -0.000060 -15.205639 2.984885 17.378210 139.999802
[Rope2_Seg05]
13 139.999985 -0.000060 0.000119 -16.650026 -8.363850 47.399307 139.999985
14 139.999985 -0.000060 0.000119 -21.499622 -1.787698 60.694210 139.999985
[Rope2_Seg06]
13 139.999893 -0.000030 -0.000119 -0.401405 -13.270514 22.721344 139.999893
14 139.999893 -0.000030 -0.000119 0.387654 -14.610751 28.894445 139.999893
[Rope2_Seg07]
13 139.999893 0.000060 -0.000060 7.646486 -19.940119 27.336756 139.999893
14 139.999893 0.000060 -0.000060 6.424920 -16.936951 20.696686 139.999893
[Rope2_Seg09]
13 121.338966 0.000089 -0.000060 33.793236 -1.359788 -0.847141 121.338966
14 121.338966 0.000089 -0.000060 33.793236 -1.359788 -0.847141 121.338966
[R_mid_hand01]
13 104.680779 11.144459 -10.335981 -37.204079 31.906813 37.576260 105.778534
14 104.680779 11.144459 -10.335981 -36.578453 32.644390 38.740570 105.778534
[R_mid_hand02]
13 104.070427 2.443552 8.231699 70.367462 -42.427391 14.067809 104.424065
14 104.070427 2.443552 8.231699 69.973366 -43.581707 14.639650 104.424065
[R_mid_hand03]
13 106.028137 -11.221827 -5.996406 -169.893616 12.226661 -47.211018 106.788818
14 106.028137 -11.221827 -5.996406 -170.161224 12.441347 -48.449886 106.788818
[spine02]
13 129.756927 0.001550 0.000119 0.500516 -4.028775 -14.949070 129.756927
14 129.756927 0.001550 0.000119 0.486382 -4.030569 -14.756467 129.756927
[spine03]
13 78.614128 0.081406 -4.899011 1.980490 3.788567 17.741228 78.766670
14 78.614136 0.081387 -4.899011 1.971998 3.793847 17.620857 78.766678
[pelvis]
13 169.435242 0.051022 0.000000 -0.069377 -0.178110 16.653116 169.435257
14 169.435242 0.051022 0.000000 -0.069020 -0.178249 16.423231 169.435257
[null_rope03_connect]
13 -1.257226 -2.466202 137.391083 -22.711807 -83.629753 77.221809 137.418976
14 -1.257226 -2.466202 137.391083 -29.293715 -85.103432 85.934418 137.418976
[null_rope04_connect]
13 -1.259640 -2.480268 -137.844437 -22.711807 -83.629753 77.221809 137.872513
14 -1.259640 -2.480268 -137.844437 -29.293715 -85.103432 85.934418 137.872513
[Rope3_Seg01]
13 0.000010 0.000019 -0.000076 -122.316971 48.474876 -59.074020 0.000079
14 0.000010 0.000017 -0.000070 -121.750832 44.354652 -58.222111 0.000073
[Rope3_Seg02]
13 139.999924 -0.000119 0.000060 -0.122764 0.723801 7.756852 139.999924
14 139.999924 -0.000119 0.000060 0.090630 1.939202 8.756938 139.999924
[Rope3_Seg03]
13 139.999924 -0.000119 0.000119 -0.781020 0.855500 9.478118 139.999924
14 139.999924 -0.000119 0.000119 -0.560070 2.446597 11.132775 139.999924
[Rope3_Seg04]
13 139.999924 0.000119 0.000000 -2.713734 1.280785 14.351497 139.999924
14 139.999924 0.000119 0.000000 -2.818238 3.938367 18.118540 139.999924
[Rope3_Seg05]
13 139.999924 -0.000238 0.000060 -5.611841 0.651699 15.211407 139.999924
14 139.999924 -0.000238 0.000060 -6.177632 2.479906 15.976882 139.999924
[Rope3_Seg06]
13 139.999893 -0.000119 -0.000060 0.042057 -0.626393 -0.151886 139.999893
14 139.999893 -0.000119 -0.000060 1.646352 -0.884027 -3.449266 139.999893
[Rope3_Seg07]
13 139.999771 0.000060 -0.000119 5.331923 -0.657578 -14.489914 139.999771
14 139.999771 0.000060 -0.000119 6.518645 -2.921052 -19.457510 139.999771
[Rope3_Seg08]
13 139.999985 -0.000060 0.000000 2.181780 -1.486311 -8.592914 139.999985
14 139.999985 -0.000060 0.000000 2.099372 -2.987953 -10.309549 139.999985
[Rope3_Seg09]
13 90.185997 -0.000179 -0.000060 89.793228 -1.359877 -0.847183 90.185997
14 90.185997 -0.000179 -0.000060 89.793228 -1.359877 -0.847183 90.185997
[R_rear_hand01]
13 103.366196 -6.073594 -10.757982 -165.129318 19.906286 -41.459824 104.101845
14 103.366196 -6.073594 -10.757982 -166.165070 20.624767 -44.436901 104.101845
[R_rear_hand02]
13 100.509819 12.039542 -7.992327 -30.361929 25.330687 39.162518 101.543350
14 100.509819 12.039542 -7.992327 -29.134808 26.762827 41.953499 101.543350
[R_rear_hand03]
13 101.539970 5.215704 5.435467 82.326164 -42.112476 9.027004 101.819031
14 101.539970 5.215704 5.435467 81.948593 -44.972103 9.574173 101.819031
[Rope4_Seg01]
13 -0.000014 -0.000019 -0.000381 36.574249 31.560328 -129.344437 0.000382
14 -0.000014 -0.000017 -0.000401 34.240601 26.893988 -135.064285 0.000401
[Rope4_Seg02]
13 139.999985 0.000060 0.000119 -1.133263 24.026327 -2.813530 139.999985
14 139.999985 0.000060 0.000119 -1.236893 23.099899 0.682837 139.999985
[Rope4_Seg03]
13 139.999924 0.000000 -0.000238 2.284452 17.242569 -1.938525 139.999924
14 139.999924 0.000000 -0.000238 1.988943 21.386328 1.167607 139.999924
[Rope4_Seg04]
13 139.999985 0.000000 0.000119 3.857977 12.616798 -2.310169 139.999985
14 139.999985 0.000000 0.000119 4.971587 18.965906 0.416066 139.999985
[Rope4_Seg05]
13 139.999802 -0.000060 -0.000119 1.342160 3.262875 -0.534087 139.999802
14 139.999802 -0.000060 -0.000119 2.009231 4.608348 -0.298669 139.999802
[Rope4_Seg06]
13 139.999924 0.000000 0.000060 -0.965387 -1.339701 1.061560 139.999924
14 139.999924 0.000000 0.000060 -1.394213 -3.451963 0.345524 139.999924
[Rope4_Seg07]
13 139.999802 0.000000 0.000000 -3.665467 -6.910365 3.341530 139.999802
14 139.999802 0.000000 0.000000 -3.910469 -12.927784 1.002668 139.999802
[Rope4_Seg08]
13 139.999924 0.000000 0.000119 -3.676550 -4.814867 2.330609 139.999924
14 139.999924 0.000000 0.000119 -3.010131 -8.508582 0.081761 139.999924
[Rope4_Seg09]
13 90.185791 0.000060 0.000060 -135.617828 2.228885 0.850567 90.185791
14 90.185791 0.000060 0.000060 -135.617828 2.228885 0.850567 90.185791
[L_rear_hand01]
13 101.696655 -8.392275 -7.654577 -23.837069 -31.497849 127.196877 102.329041
14 101.696655 -8.392275 -7.654577 -21.399752 -33.105400 122.636459 102.329041
[L_rear_hand02]
13 102.726799 -1.568258 5.773216 79.940971 55.428265 167.825546 102.900848
14 102.726799 -1.568258 5.773216 78.723900 59.531788 166.383713 102.900848
[L_rear_hand03]
13 104.552910 9.721220 -10.420293 -170.300171 -22.788525 -124.407036 105.519653
14 104.552910 9.721220 -10.420293 -172.062332 -23.429153 -119.922249 105.519653
